<?xml version="1.0" encoding="UTF-8"?>
<svg version="1.1" viewBox="0 0 2048 792" width="1083" height="419" xmlns="http://www.w3.org/2000/svg">
<path transform="translate(0)" d="m0 0h2048v792h-2048z" fill="#FDFCFC"/>
<path transform="translate(372,180)" d="m0 0h169l4 5v49h33l6 4 2 4 1 26h11l1 23 20 1v14l-20 1v38l9-1h10l10 2 9 6 6 9 1 4v100l-3 8-5 6-8 5-3 1-26 1v9l24 12 3 4v43l-4 4-9 2-1 21-2 3-3 1h-49l-2 10-6 12-9 10-9 6-13 5-4 1h-15l-12-3-11-6-7-6-9-13-4-11-1-5v-13l3-11-166 1 2 9v16l-4 13-6 10-4 5 179 1v13l-12 1h-257l-11-1v-13h28l-8-10-5-11-2-8-51-1-6-4-1-2v-19h-26v-87l19-10 7-4 1-12 5-4 45-22 39-19 12-20 12-19 15-24 12-20 1-13 4-12 7-10 7-7 10-6 10-3 13-1h12v-14l4-11 6-8 9-7 8-3 1-41z" fill="#133259"/>
<path transform="translate(287,330)" d="m0 0h297l1 5-1 136h-164l-1-123h-13v122l-1 1-159 1-51 22h-2v-31h-42l-1-1v-6l19-10 35-17 29-14 4-5 15-24 13-21 15-24z" fill="#FDFCFA"/>
<path transform="translate(1723,353)" d="m0 0h79l13 2 16 6 12 8 12 12 9 14 5 15 2 11v13l-3 15-5 12-6 10-9 10-9 8-2 2 15 35 4 9v4h-38l-4-6-13-30v-2l-21 1h-21l1 36-1 1h-22l-14-1-1-4v-180z" fill="#FEB428"/>
<path transform="translate(1092,353)" d="m0 0h14l14 3 12 5 11 6 12 11 7 10 6 12 4 15 1 8v115l-1 1h-34l-2-1-1-10v-26h-73v36l-1 1h-15l-21-1v-123l4-15 8-15 11-13 13-9 10-5 15-4z" fill="#FEB428"/>
<path transform="translate(708,353)" d="m0 0h79l17 3 13 5 13 9 10 10 9 14 5 13 2 10v22l-4 15-9 17-11 12-9 7-16 8-13 3-19 1h-30v37h-31l-6-1z" fill="#FEB428"/>
<path transform="translate(1147,156)" d="m0 0h76l16 4 16 8 12 11 7 10 6 13 3 12v19l-2 10-4 11-6 10-9 10-7 6-2 1 1 5 16 38v2h-36l-5-10-10-23h-38v33h-34z" fill="#FEB428"/>
<path transform="translate(1366,156)" d="m0 0h11l15 3 10 4 11 7 9 8 8 11 5 10 4 14v113h-33l-1-2-1-31h-66l-1 33h-34v-104l2-14 5-14 7-12 11-11 14-9 16-5z" fill="#FEB428"/>
<path transform="translate(770,156)" d="m0 0h12l14 3 12 5 11 7 11 11 8 13 5 15 1 11v105h-34l-1-33h-66l-1 33h-34v-109l2-11 5-13 8-12 10-10 14-9 16-5z" fill="#FEB428"/>
<path transform="translate(1205,353)" d="m0 0h39l7 10 9 16 16 27 15 26 16 27 8 14 1-120h37v185l-1 1h-38l-7-10-10-18-13-22-34-58-7-11-1 118-1 1h-25l-11-1-1-169z" fill="#FEB428"/>
<path transform="translate(1387,353)" d="m0 0h40l15 25 15 26 34 58 6 10 1-119h37v186h-39l-6-9-9-16-9-15-15-26-16-27-13-22-3-5-1 120h-22l-15-1z" fill="#FEB428"/>
<path transform="translate(1570,353)" d="m0 0h126v38h-89v36h60l1 2-1 36h-60v36h89v38h-119l-7-1-1-21v-163z" fill="#FEB428"/>
<path transform="translate(1611,156)" d="m0 0h117v34l-82 1v32l55 1v34l-55 1v32l82 1v34l-2 1-114-1-1-1z" fill="#FEB428"/>
<path transform="translate(250,485)" d="m0 0h156v61h-123l-10-9-11-6-8-2h-20l-10 3-12 7-3 3h-2l-2 4h-55v-8h43v-28l12-6 40-17z" fill="#FDFCFB"/>
<path transform="translate(1450,156)" d="m0 0h39l12 41 15 50 5 17v3h2l4-16 15-49 12-41 2-5h39l-2 9-32 96-13 41-8 23-1 1h-34l-9-25-15-47-29-88z" fill="#FEB428"/>
<path transform="translate(878,353)" d="m0 0h37v148h92l1 1v36l-1 1h-119l-10-1z" fill="#FEB428"/>
<path transform="translate(993,156)" d="m0 0h136v34l-50 1-1 135h-34l-1-135-50-1z" fill="#FEB428"/>
<path transform="translate(442,342)" d="m0 0h121l5 3 2 4v55l-3 5-3 2-15 1-108-1-5-5v-58l4-5z" fill="#133259"/>
<path transform="translate(420,485)" d="m0 0h164l1 60-1 1h-37l-7-7-10-6-10-4-7-1h-12l-13 3-11 6-9 9h-48z" fill="#FDFCFB"/>
<path transform="translate(1752,156)" d="m0 0h33v136h85l1 1v33h-119l-1-30v-139z" fill="#FEB428"/>
<path transform="translate(296,340)" d="m0 0h77l5 3 2 3v62l-5 6h-113l-5-5 1-6 16-30 12-22 6-9z" fill="#133259"/>
<path transform="translate(873,156)" d="m0 0h34v170h-33z" fill="#FEB428"/>
<path transform="translate(1761,390)" d="m0 0h34l13 2 10 5 7 6 6 9 3 13-1 10-4 11-8 10-8 5-8 3-10 1h-27l-9-1v-73z" fill="#FDFDFD"/>
<path transform="translate(746,390)" d="m0 0h35l13 2 10 5 7 6 6 10 2 8v12l-3 10-6 9-8 7-8 4-11 2h-28l-10-1v-73z" fill="#FDFDFD"/>
<path transform="translate(382,193)" d="m0 0h149v40h-10l-4-6-1-1-133-1-1-1z" fill="#FDFCFC"/>
<path transform="translate(1090,391)" d="m0 0h17l12 5 10 9 5 9 1 5 1 45-1 1h-28l-45-1v-43l5-13 9-10 5-4z" fill="#FDFDFD"/>
<path transform="translate(468,238)" d="m0 0 39 1v29l-3 1h-149l-1-1v-13l4-8 7-6 5-2z" fill="#FDFCFC"/>
<path transform="translate(244,541)" d="m0 0 12 2 10 5 8 8 6 12 1 4v14l-4 11-7 9-9 6-11 4h-12l-10-3-9-6-7-8-4-9-1-4v-15l4-11 9-10 5-4 11-4z" fill="#133259"/>
<path transform="translate(501,541)" d="m0 0h12l10 3 9 6 7 8 5 12v16l-4 10-4 6-9 8-13 5h-13l-12-4-9-7-6-9-3-7-1-5v-11l3-10 8-11 8-6z" fill="#133259"/>
<path transform="translate(1182,190)" d="m0 0h35l12 3 9 6 7 8 3 6 1 7v8l-2 9-6 10-9 7-10 4h-41v-67z" fill="#FDFDFD"/>
<path transform="translate(774,190)" d="m0 0 10 1 10 4 10 9 5 10 1 8v36h-68v-35l2-10 5-10 7-7 8-4z" fill="#FDFDFD"/>
<path transform="translate(1369,190)" d="m0 0 11 1 12 6 8 8 4 9 1 5v39h-67v-42l6-12 5-6 10-6z" fill="#FDFDFD"/>
<path transform="translate(301,354)" d="m0 0h64l1 1v45h-90l8-16 12-22z" fill="#FDFCFC"/>
<path transform="translate(600,359)" d="m0 0h21l5 3 4 5 1 4v87l-2 8-5 4-2 1h-22l-1-1v-110z" fill="#FDFCFC"/>
<path transform="translate(244,541)" d="m0 0 12 2 10 5 8 8 6 12 1 4v14l-4 11-7 9-9 6-11 4h-12l-10-3-9-6-7-8-4-9-1-4v-15l4-11 9-10 5-4 11-4zm-7 11-10 5-7 8-3 8v12l6 12 8 6 9 3h9l10-4 7-6 4-7 1-4v-12l-3-8-7-8-10-5z" fill="#FDFBF9"/>
<path transform="translate(501,541)" d="m0 0h12l10 3 9 6 7 8 5 12v16l-4 10-4 6-9 8-13 5h-13l-12-4-9-7-6-9-3-7-1-5v-11l3-10 8-11 8-6zm0 10-9 4-6 5-5 10-1 4v9l4 10 5 6 9 5 3 1h12l10-4 7-7 3-5 2-13-3-10-4-6-7-6-8-3z" fill="#FDFBFA"/>
<path transform="translate(450,356)" d="m0 0h46v41l-45 1-1-1z" fill="#FDFCFC"/>
<path transform="translate(510,356)" d="m0 0h46v41h-46z" fill="#FDFCFC"/>
<path transform="translate(311,571)" d="m0 0h129v14h-129z" fill="#133259"/>
<path transform="translate(1609,594)" d="m0 0h23l8 3 5 5 2 4v7l-3 7-4 4-4 2 1 5 9 16 2 5h-7l-7-10-8-14-10-1v24l-1 1h-6l-1-1v-56z" fill="#133259"/>
<path transform="translate(1280,594)" d="m0 0h24l9 3 4 5 1 2v12l-3 5-4 4-5 1 10 18 4 8h-8l-14-24-10-1-1 25h-6l-1-1z" fill="#133259"/>
<path transform="translate(900,594)" d="m0 0h23l9 3 5 5 2 10-2 8-5 5-6 3-6 1h-13v20l-1 3h-6l-1-2v-46z" fill="#133259"/>
<path transform="translate(1130,594)" d="m0 0h23l11 4 4 6v14l-6 7-6 3-6 1h-13l-1 23h-6l-1-6v-50z" fill="#133259"/>
<path transform="translate(1511,594)" d="m0 0h23l10 3 4 5 2 6-1 10-7 8-10 3h-14v23h-7z" fill="#133259"/>
<path transform="translate(150,477)" d="m0 0h29v46l-1 1h-28z" fill="#FDFBF9"/>
<path transform="translate(1241,599)" d="m0 0 7 1 6 4 5 8 1 4v13l-4 11-6 5-2 1h-10l-7-4-5-10-1-12 2-9 5-8 5-3z" fill="#FDFCFA"/>
<path transform="translate(504,504)" d="m0 0 15 1 15 4 16 8 10 9 2 1-1 3-8 7-5-2-7-6-12-6-11-3h-21l-14 4-5 3h-4l-6-9 1-3 14-7 12-3z" fill="#133259"/>
<path transform="translate(233,504)" d="m0 0h20l10 2 16 6 12 8 7 6-2 4-7 7-6-4-6-5-12-6-12-3h-19l-16 5-7 3-7-11 3-3 13-6z" fill="#133259"/>
<path transform="translate(863,594)" d="m0 0h9l11 33 8 23v2h-8l-5-16v-2h-22l-2 9-3 9h-7l3-11 15-45z" fill="#133259"/>
<path transform="translate(560,616)" d="m0 0h79v14h-79z" fill="#133259"/>
<path transform="translate(1730,594)" d="m0 0h8l14 25 8 13 4 8 1 1-1-15v-27l1-5h6v58h-7l-8-13-16-28-3-6v47h-7z" fill="#133259"/>
<path transform="translate(1237,593)" d="m0 0h11l10 5 6 7 3 9 1 11-3 13-6 9-5 4-7 2h-8l-8-3-8-7-4-10-1-4v-12l4-13 6-7zm4 6-7 3-5 5-3 7-1 11 2 10 5 8 6 3h10l6-4 4-6 2-7v-13l-4-10-6-5-5-2z" fill="#133259"/>
<path transform="translate(522,248)" d="m0 0h42l8 1v19l-25 1h-24l-1-1z" fill="#FDFDFD"/>
<path transform="translate(1037,594)" d="m0 0h34v5l-1 1-25 1-1 17h22l1 1v5l-1 1h-21v20l27 1v6h-35z" fill="#133259"/>
<path transform="translate(1683,594)" d="m0 0h34v5l-1 1-25 1v16l21 1 1 2-1 5h-22l1 20 26 1v6h-33l-1-1z" fill="#133259"/>
<path transform="translate(1838,594)" d="m0 0h33v6l-25 1-1 17h22v7h-22l1 20 26 1v6h-34z" fill="#133259"/>
<path transform="translate(1562,594)" d="m0 0h33v6h-26v18h22v6l-1 1h-21v21h27v6h-34z" fill="#133259"/>
<path transform="translate(1419,594)" d="m0 0h33v6h-26v18h22v6l-1 1h-21v21h27v5l-1 1h-33z" fill="#133259"/>
<path transform="translate(707,594)" d="m0 0h33v6h-26v18h22v6l-1 1h-21v21h27v6h-34z" fill="#133259"/>
<path transform="translate(951,594)" d="m0 0h33v6h-26v18h22v6l-1 1h-20l-1 21h27v6h-34z" fill="#133259"/>
<path transform="translate(1332,594)" d="m0 0h33v6h-26v18h22v6l-1 1h-20l-1 21h27v6h-34z" fill="#133259"/>
<path transform="translate(765,593)" d="m0 0h10l9 4 3 3-3 5-8-4-10-1-4 2-2 3 1 7 8 5 16 8 4 8-1 9-4 6-6 4-12 1-10-3-6-4 1-5 3-1 9 5 9 1 7-3 2-4-1-8-4-2-16-7-7-8-1-2 1-10 5-6z" fill="#133259"/>
<path transform="translate(1460,594)" d="m0 0h8l12 22 10-18 3-4h7l-6 12-8 14 1 6 14 25v1h-8l-12-22-1-2-8 14-6 10h-7l2-5 13-23-1-6-13-23z" fill="#133259"/>
<path transform="translate(1079,594)" d="m0 0h8l10 19 2 3 12-22h8l-6 11-9 16 2 6 13 22v3h-7l-13-23-2-1-2 6-10 18h-7l2-5 13-24-1-4-12-22z" fill="#133259"/>
<path transform="translate(379,282)" d="m0 0h48l9 1v9h-82l-1-8 1-1z" fill="#FDFDFD"/>
<path transform="translate(817,593)" d="m0 0h11l8 4 3 4-3 3-5-2-4-2-10 1-5 3-4 5-2 7v14l4 10 5 4 6 2 8-1 6-4h3l2 4-6 5-8 3h-7l-9-3-7-6-4-8-2-9 1-14 6-12 8-6z" fill="#133259"/>
<path transform="translate(1804,593)" d="m0 0h11l8 4 2 4-4 4-5-4-2-1-11 1-5 2-2 4-3 7-1 11 3 12 6 7 5 2 10-1 5-4 4 1 1 4-5 4-7 3h-8l-9-3-8-7-4-9-1-5v-13l4-11 7-8z" fill="#133259"/>
<path transform="translate(101,616)" d="m0 0h53v14h-53z" fill="#133259"/>
<path transform="translate(354,306)" d="m0 0h82v9h-82z" fill="#FDF6E8"/>
<path transform="translate(1181,594)" d="m0 0h7v52h25v6h-32z" fill="#133259"/>
<path transform="translate(467,282)" d="m0 0h32l8 1v9h-56l-1-1v-8z" fill="#FDFDFD"/>
<path transform="translate(240,566)" d="m0 0h8l5 3 4 5v9l-4 6-6 3-9-1-5-5-2-4v-7l4-6z" fill="#FDFBF9"/>
<path transform="translate(504,565)" d="m0 0h7l6 4 3 4v10l-6 7-3 1h-7l-6-3-3-4-1-9 4-6 3-3z" fill="#FDFCFB"/>
<path transform="translate(1137,600)" d="m0 0h16l6 3 2 3v9l-3 5-7 3h-14l-1-10v-12z" fill="#FDFCFA"/>
<path transform="translate(451,306)" d="m0 0h56v9h-56l-1-1z" fill="#FDF9F3"/>
<path transform="translate(1518,600)" d="m0 0h16l5 2 3 4v10l-4 5-6 2h-14z" fill="#FDFDFD"/>
<path transform="translate(907,600)" d="m0 0h16l5 2 3 4v10l-4 5-6 2h-14z" fill="#FDFCFA"/>
<path transform="translate(149,561)" d="m0 0h47l-3 11h-26l-18-1z" fill="#FDFCFB"/>
<path transform="translate(311,285)" d="m0 0h2v30h-22l1-9 5-10 7-7z" fill="#FDFCFA"/>
<path transform="translate(1288,600)" d="m0 0h16l5 3 2 3v9l-5 5-2 1h-17v-20z" fill="#FDFCFC"/>
<path transform="translate(1616,600)" d="m0 0h16l6 3 1 2v10l-5 5-2 1-15 1-1-1z" fill="#FDFDFD"/>
<path transform="translate(556,561)" d="m0 0h42l1 1v8l-1 1h-40z" fill="#FDFCFC"/>
<path transform="translate(1660,594)" d="m0 0h7v58h-7z" fill="#133259"/>
<path transform="translate(599,512)" d="m0 0 6 2 7 4v27h-12l-1-1z" fill="#FDFCFB"/>
<path transform="translate(123,518)" d="m0 0h13v28h-13z" fill="#FDFAF6"/>
<path transform="translate(133,477)" d="m0 0h3v26l-1 1h-12v-22z" fill="#FDFBF9"/>
<path transform="translate(521,306)" d="m0 0h29l1 1v8h-30z" fill="#FDFCFC"/>
<path transform="translate(521,283)" d="m0 0h30v8l-1 1h-29z" fill="#FDFDFD"/>
<path transform="translate(866,601)" d="m0 0h2l8 25v2l-17 1 1-7z" fill="#FDFBF8"/>
<path transform="translate(565,306)" d="m0 0h19v9h-19z" fill="#FDFDFD"/>
<path transform="translate(565,283)" d="m0 0h19v9h-19z" fill="#FDFDFD"/>
<path transform="translate(328,282)" d="m0 0 12 1v8l-1 1h-12v-9z" fill="#FDFCFB"/>
<path transform="translate(327,306)" d="m0 0h12l1 1v7l-1 1h-12z" fill="#FDFDFD"/>
<path transform="translate(999,642)" d="m0 0 5 1 1 7-3 3-5-1-2-3 1-5z" fill="#133259"/>
<path transform="translate(1380,642)" d="m0 0 6 2v7l-5 2-3-1-2-5 2-4z" fill="#133259"/>
</svg>
